# MagicaVoxel @ ephtracy

# material
mtllib fragment1.mtl

# normals
vn -1 0 0
vn 1 0 0
vn 0 0 1
vn 0 0 -1
vn 0 -1 0
vn 0 1 0

# texcoords
vt 0.205078 0.5
vt 0.861328 0.5

# verts
v 0 0 2
v 0 1 2
v 0 1 1
v 0 0 1
v -2 1 -0
v -2 2 -0
v -2 2 -1
v -2 1 -1
v -2 2 -2
v -2 1 -2
v 0 1 -0
v 0 0 -0
v 0 3 2
v 0 4 2
v 0 4 1
v 0 3 1
v -2 2 1
v -2 3 1
v -2 3 -0
v 1 1 2
v 1 2 2
v 1 2 1
v 1 1 1
v -2 0 -1
v -2 0 -2
v 0 2 1
v 0 2 -0
v -2 3 -1
v -1 3 1
v -1 4 1
v -1 4 -0
v -1 3 -0
v 1 3 2
v 1 3 1
v 0 1 -1
v 0 0 -1
v 2 1 1
v 2 1 -0
v 2 2 -0
v 2 2 1
v 1 2 -0
v 1 2 -1
v 1 3 -1
v 1 3 -0
v 2 0 2
v 2 0 1
v 2 1 2
v 1 0 1
v 1 0 -0
v 1 1 -0
v 1 4 -0
v 1 4 1
v 2 3 2
v 2 3 1
v 2 4 1
v 2 4 2
v 2 2 2
v 2 1 -1
v 2 2 -1
v 2 1 -2
v 2 2 -2
v 2 0 -1
v 2 0 -2
v 1 0 -1
v 1 1 -1
v -1 2 1
v 1 0 2
v -1 1 -0
v -1 2 -0
v 1 4 2
v -1 0 -1
v -1 1 -1
v -1 2 -2
v -1 1 -2
v 0 2 -1
v 0 3 -1
v 0 2 -2
v 0 1 -2
v 0 3 -0
v 0 4 -0
v 0 0 -2
v 1 1 -2
v 1 0 -2
v -1 2 -1
v -1 3 -1
v 1 2 -2
v -1 0 -2

# faces

usemtl palette

f 1/1/1 2/1/1 3/1/1 4/1/1

f 5/1/1 6/1/1 7/1/1 8/1/1

f 8/1/1 7/1/1 9/1/1 10/1/1

f 4/1/1 3/1/1 11/1/1 12/1/1

f 13/1/1 14/1/1 15/1/1 16/1/1

f 17/1/1 18/1/1 19/1/1 6/1/1

f 20/1/1 21/1/1 22/1/1 23/1/1

f 24/1/1 8/1/1 10/1/1 25/1/1

f 3/2/1 26/2/1 27/2/1 11/2/1

f 6/1/1 19/1/1 28/1/1 7/1/1

f 29/1/1 30/1/1 31/1/1 32/1/1

f 21/1/1 33/1/1 34/1/1 22/1/1

f 12/1/1 11/1/1 35/1/1 36/1/1

f 37/1/2 38/1/2 39/1/2 40/1/2

f 41/1/2 42/1/2 43/1/2 44/1/2

f 45/1/2 46/1/2 37/1/2 47/1/2

f 48/1/2 49/1/2 50/1/2 23/1/2

f 34/1/2 44/1/2 51/1/2 52/1/2

f 53/1/2 54/1/2 55/1/2 56/1/2

f 47/1/2 37/1/2 40/1/2 57/1/2

f 38/1/2 58/1/2 59/1/2 39/1/2

f 58/1/2 60/1/2 61/1/2 59/1/2

f 22/2/2 41/2/2 44/2/2 34/2/2

f 57/1/2 40/1/2 54/1/2 53/1/2

f 62/1/2 63/1/2 60/1/2 58/1/2

f 49/1/2 64/1/2 65/1/2 50/1/2

f 66/2/3 26/2/3 16/2/3 29/2/3

f 1/1/3 67/1/3 20/1/3 2/1/3

f 5/1/3 68/1/3 69/1/3 6/1/3

f 67/1/3 45/1/3 47/1/3 20/1/3

f 68/2/3 11/2/3 27/2/3 69/2/3

f 33/1/3 53/1/3 56/1/3 70/1/3

f 13/1/3 33/1/3 70/1/3 14/1/3

f 17/1/3 66/1/3 29/1/3 18/1/3

f 20/1/3 47/1/3 57/1/3 21/1/3

f 24/1/3 71/1/3 72/1/3 8/1/3

f 3/2/3 23/2/3 22/2/3 26/2/3

f 29/1/3 16/1/3 15/1/3 30/1/3

f 26/2/3 22/2/3 34/2/3 16/2/3

f 71/1/3 36/1/3 35/1/3 72/1/3

f 21/1/3 57/1/3 53/1/3 33/1/3

f 64/1/3 62/1/3 58/1/3 65/1/3

f 10/1/4 9/1/4 73/1/4 74/1/4

f 75/1/4 76/1/4 43/1/4 42/1/4

f 48/1/4 23/1/4 37/1/4 46/1/4

f 74/1/4 73/1/4 77/1/4 78/1/4

f 79/1/4 80/1/4 51/1/4 44/1/4

f 34/1/4 52/1/4 55/1/4 54/1/4

f 81/1/4 78/1/4 82/1/4 83/1/4

f 84/1/4 85/1/4 76/1/4 75/1/4

f 78/1/4 77/1/4 86/1/4 82/1/4

f 82/1/4 86/1/4 61/1/4 60/1/4

f 25/1/4 10/1/4 74/1/4 87/1/4

f 7/1/4 28/1/4 85/1/4 84/1/4

f 32/1/4 31/1/4 80/1/4 79/1/4

f 87/1/4 74/1/4 78/1/4 81/1/4

f 22/1/4 34/1/4 54/1/4 40/1/4

f 83/1/4 82/1/4 60/1/4 63/1/4

f 66/2/5 69/2/5 27/2/5 26/2/5

f 1/1/5 4/1/5 48/1/5 67/1/5

f 5/1/5 8/1/5 72/1/5 68/1/5

f 23/1/5 50/1/5 38/1/5 37/1/5

f 67/1/5 48/1/5 46/1/5 45/1/5

f 4/1/5 12/1/5 49/1/5 48/1/5

f 68/2/5 72/2/5 35/2/5 11/2/5

f 13/1/5 16/1/5 34/1/5 33/1/5

f 17/1/5 6/1/5 69/1/5 66/1/5

f 36/1/5 81/1/5 83/1/5 64/1/5

f 50/1/5 65/1/5 58/1/5 38/1/5

f 24/1/5 25/1/5 87/1/5 71/1/5

f 71/1/5 87/1/5 81/1/5 36/1/5

f 64/1/5 83/1/5 63/1/5 62/1/5

f 12/1/5 36/1/5 64/1/5 49/1/5

f 2/1/6 20/1/6 23/1/6 3/1/6

f 22/1/6 40/1/6 39/1/6 41/1/6

f 7/1/6 84/1/6 73/1/6 9/1/6

f 79/1/6 44/1/6 43/1/6 76/1/6

f 84/1/6 75/1/6 77/1/6 73/1/6

f 15/1/6 52/1/6 51/1/6 80/1/6

f 70/1/6 56/1/6 55/1/6 52/1/6

f 14/1/6 70/1/6 52/1/6 15/1/6

f 18/1/6 29/1/6 32/1/6 19/1/6

f 32/1/6 79/1/6 76/1/6 85/1/6

f 41/1/6 39/1/6 59/1/6 42/1/6

f 75/1/6 42/1/6 86/1/6 77/1/6

f 42/1/6 59/1/6 61/1/6 86/1/6

f 19/1/6 32/1/6 85/1/6 28/1/6

f 30/1/6 15/1/6 80/1/6 31/1/6

# numNormals 6
# numTexCoords 2
# numVerts 87
# numFaces 88
