# MagicaVoxel @ ephtracy

# material
mtllib fragment2.mtl

# normals
vn -1 0 0
vn 1 0 0
vn 0 0 1
vn 0 0 -1
vn 0 -1 0
vn 0 1 0

# texcoords
vt 0.205078 0.5
vt 0.958984 0.5
vt 0.990234 0.5

# verts
v -2 0 2
v -2 1 2
v -2 1 1
v -2 0 1
v 1 3 -0
v 1 4 -0
v 1 4 -1
v 1 3 -1
v -2 1 -1
v -2 2 -1
v -2 2 -2
v -2 1 -2
v -2 3 1
v -2 4 1
v -2 4 -0
v -2 3 -0
v 0 0 1
v 0 1 1
v 0 1 -0
v 0 0 -0
v 0 3 1
v 0 4 1
v 0 4 -0
v 0 3 -0
v -2 1 -0
v -2 0 -0
v 0 3 2
v 0 4 2
v 0 2 -1
v 0 3 -1
v 0 3 -2
v 0 2 -2
v -2 2 1
v -2 2 -0
v 1 2 -0
v 1 2 -1
v 0 2 1
v 0 2 -0
v -2 2 2
v -2 3 2
v 0 1 2
v 0 2 2
v 1 0 -1
v 1 1 -1
v 1 1 -2
v 1 0 -2
v 0 4 -1
v 0 4 -2
v 0 1 -1
v 0 0 -1
v 2 3 -1
v 2 3 -2
v 2 4 -2
v 2 4 -1
v 2 3 -0
v 2 4 -0
v -1 1 -1
v -1 1 -2
v -1 2 -2
v -1 2 -1
v -1 3 1
v -1 3 -0
v -1 4 -0
v -1 4 1
v 2 3 1
v 2 4 1
v -1 0 1
v -1 0 -0
v -1 1 -0
v -1 1 1
v 2 3 2
v 2 4 2
v 2 1 -0
v 2 1 -1
v 2 2 -1
v 2 2 -0
v 2 0 2
v 2 0 1
v 2 1 1
v 2 1 2
v 1 2 -2
v 1 3 -2
v -1 2 1
v -1 2 -0
v 2 2 1
v 2 2 2
v 2 0 -0
v -1 2 2
v -1 3 2
v -1 1 2
v 2 0 -1
v 2 0 -2
v 2 1 -2
v 1 0 -0
v 1 1 -0
v 0 0 2
v 1 0 2
v 1 1 2
v -1 0 2
v 1 3 2
v 1 4 2
v 1 2 2
v 1 4 -2
v 1 0 1
v 1 4 1

# faces

usemtl palette

f 1/1/1 2/1/1 3/1/1 4/1/1

f 5/2/1 6/2/1 7/2/1 8/2/1

f 9/1/1 10/1/1 11/1/1 12/1/1

f 13/1/1 14/1/1 15/1/1 16/1/1

f 17/1/1 18/1/1 19/1/1 20/1/1

f 21/1/1 22/1/1 23/1/1 24/1/1

f 4/1/1 3/1/1 25/1/1 26/1/1

f 27/1/1 28/1/1 22/1/1 21/1/1

f 29/1/1 30/1/1 31/1/1 32/1/1

f 33/1/1 13/1/1 16/1/1 34/1/1

f 25/1/1 34/1/1 10/1/1 9/1/1

f 35/2/1 5/2/1 8/2/1 36/2/1

f 18/1/1 37/1/1 38/1/1 19/1/1

f 37/1/1 21/1/1 24/1/1 38/1/1

f 39/1/1 40/1/1 13/1/1 33/1/1

f 41/1/1 42/1/1 37/1/1 18/1/1

f 3/1/1 33/1/1 34/1/1 25/1/1

f 42/1/1 27/1/1 21/1/1 37/1/1

f 2/1/1 39/1/1 33/1/1 3/1/1

f 43/1/1 44/1/1 45/1/1 46/1/1

f 30/1/1 47/1/1 48/1/1 31/1/1

f 20/1/1 19/1/1 49/1/1 50/1/1

f 51/1/2 52/1/2 53/1/2 54/1/2

f 55/2/2 51/2/2 54/2/2 56/2/2

f 57/1/2 58/1/2 59/1/2 60/1/2

f 61/1/2 62/1/2 63/1/2 64/1/2

f 65/3/2 55/3/2 56/3/2 66/3/2

f 67/1/2 68/1/2 69/1/2 70/1/2

f 71/2/2 65/2/2 66/2/2 72/2/2

f 73/1/2 74/1/2 75/1/2 76/1/2

f 77/1/2 78/1/2 79/1/2 80/1/2

f 36/1/2 81/1/2 82/1/2 8/1/2

f 83/1/2 84/1/2 62/1/2 61/1/2

f 76/2/2 75/2/2 51/2/2 55/2/2

f 80/1/2 79/1/2 85/1/2 86/1/2

f 78/1/2 87/1/2 73/1/2 79/1/2

f 85/2/2 76/2/2 55/2/2 65/2/2

f 88/1/2 83/1/2 61/1/2 89/1/2

f 70/1/2 69/1/2 84/1/2 83/1/2

f 90/1/2 70/1/2 83/1/2 88/1/2

f 91/1/2 92/1/2 93/1/2 74/1/2

f 79/1/2 73/1/2 76/1/2 85/1/2

f 94/1/2 43/1/2 44/1/2 95/1/2

f 86/2/2 85/2/2 65/2/2 71/2/2

f 96/1/3 97/1/3 98/1/3 41/1/3

f 99/1/3 96/1/3 41/1/3 90/1/3

f 1/1/3 99/1/3 90/1/3 2/1/3

f 13/1/3 61/1/3 64/1/3 14/1/3

f 69/1/3 19/1/3 38/1/3 84/1/3

f 100/2/3 71/2/3 72/2/3 101/2/3

f 27/1/3 100/1/3 101/1/3 28/1/3

f 97/1/3 77/1/3 80/1/3 98/1/3

f 29/1/3 36/1/3 8/1/3 30/1/3

f 98/1/3 80/1/3 86/1/3 102/1/3

f 39/1/3 88/1/3 89/1/3 40/1/3

f 41/1/3 98/1/3 102/1/3 42/1/3

f 42/1/3 102/1/3 100/1/3 27/1/3

f 2/1/3 90/1/3 88/1/3 39/1/3

f 43/1/3 91/1/3 74/1/3 44/1/3

f 30/1/3 8/1/3 7/1/3 47/1/3

f 102/2/3 86/2/3 71/2/3 100/2/3

f 82/1/4 103/1/4 53/1/4 52/1/4

f 67/1/4 70/1/4 18/1/4 17/1/4

f 12/1/4 11/1/4 59/1/4 58/1/4

f 16/1/4 15/1/4 63/1/4 62/1/4

f 24/1/4 23/1/4 6/1/4 5/1/4

f 57/1/4 60/1/4 29/1/4 49/1/4

f 26/1/4 25/1/4 69/1/4 68/1/4

f 44/1/4 36/1/4 75/1/4 74/1/4

f 49/1/4 29/1/4 36/1/4 44/1/4

f 32/1/4 31/1/4 82/1/4 81/1/4

f 34/1/4 16/1/4 62/1/4 84/1/4

f 36/2/4 8/2/4 51/2/4 75/2/4

f 94/1/4 95/1/4 73/1/4 87/1/4

f 38/1/4 24/1/4 5/1/4 35/1/4

f 46/1/4 45/1/4 93/1/4 92/1/4

f 31/1/4 48/1/4 103/1/4 82/1/4

f 50/1/4 49/1/4 44/1/4 43/1/4

f 8/1/5 82/1/5 52/1/5 51/1/5

f 96/1/5 17/1/5 104/1/5 97/1/5

f 99/1/5 67/1/5 17/1/5 96/1/5

f 1/1/5 4/1/5 67/1/5 99/1/5

f 9/1/5 12/1/5 58/1/5 57/1/5

f 17/1/5 20/1/5 94/1/5 104/1/5

f 69/1/5 57/1/5 49/1/5 19/1/5

f 4/1/5 26/1/5 68/1/5 67/1/5

f 95/1/5 44/1/5 74/1/5 73/1/5

f 97/1/5 104/1/5 78/1/5 77/1/5

f 29/1/5 32/1/5 81/1/5 36/1/5

f 25/1/5 9/1/5 57/1/5 69/1/5

f 104/1/5 94/1/5 87/1/5 78/1/5

f 43/1/5 46/1/5 92/1/5 91/1/5

f 20/1/5 50/1/5 43/1/5 94/1/5

f 7/1/6 54/1/6 53/1/6 103/1/6

f 90/1/6 41/1/6 18/1/6 70/1/6

f 6/2/6 56/2/6 54/2/6 7/2/6

f 10/1/6 60/1/6 59/1/6 11/1/6

f 14/1/6 64/1/6 63/1/6 15/1/6

f 105/3/6 66/3/6 56/3/6 6/3/6

f 22/1/6 105/1/6 6/1/6 23/1/6

f 84/1/6 38/1/6 29/1/6 60/1/6

f 101/2/6 72/2/6 66/2/6 105/2/6

f 28/1/6 101/1/6 105/1/6 22/1/6

f 38/1/6 35/1/6 36/1/6 29/1/6

f 34/1/6 84/1/6 60/1/6 10/1/6

f 40/1/6 89/1/6 61/1/6 13/1/6

f 44/1/6 74/1/6 93/1/6 45/1/6

f 47/1/6 7/1/6 103/1/6 48/1/6

# numNormals 6
# numTexCoords 3
# numVerts 105
# numFaces 108
